{"title":"Man.on.a.Ledge.2012.720p.BRrip.XviD.AC3-INFERNO","uid":7263679,"size":2761238528,"categoryP":"video","categoryS":"hd___movies","magnet":"?xt=urn:btih:bb2937fb4b47070bc6af620a29eba44dacd49713&amp;dn=Man.on.a.Ledge.2012.720p.BRrip.XviD.AC3-INFERNO&amp;tr=udp%3A%2F%2Ftracker.openbittorrent.com%3A80&amp;tr=udp%3A%2F%2Fopen.demonii.com%3A1337&amp;tr=udp%3A%2F%2Ftracker.coppersurfer.tk%3A6969&amp;tr=udp%3A%2F%2Fexodus.desync.com%3A6969","seeders":0,"leechers":0,"uploader":"16DodgE16","files":1,"time":1336813770,"description":"General\n Format : AVI\n Format/Info : Audio Video Interleave\n Format profile : OpenDML\n File size : 2.57 GiB\n Duration : 1h 42mn\n Overall bit rate : 3 596 Kbps\n Writing application : VirtualDubMod 1.5.4.1 (build 2178/release)\n Writing library : VirtualDubMod build 2178/release\n\nVideo\n ID : 0\n Format : MPEG-4 Visual\n Format profile : Advanced Simple@L5\n Format settings, BVOP : Yes\n Format settings, QPel : No\n Format settings, GMC : No warppoints\n Format settings, Matrix : Custom\n Muxing mode : Packed bitstream\n Codec ID : XVID\n Codec ID/Hint : XviD\n Duration : 1h 42mn\n Bit rate : 3 137 Kbps\n Width : 1 280 pixels\n Height : 534 pixels\n Display aspect ratio : 2.35:1\n Frame rate : 23.976 fps\n Color space : YUV\n Chroma subsampling : 4:2:0\n Bit depth : 8 bits\n Scan type : Progressive\n Bits/(Pixel*Frame) : 0.191\n Stream size : 2.24 GiB (87%)\n Writing library : XviD 64\n\nAudio\n ID : 1\n Format : AC-3\n Format/Info : Audio Coding 3\n Mode extension : CM (complete main)\n Codec ID : 2000\n Duration : 1h 42mn\n Bit rate mode : Constant\n Bit rate : 448 Kbps\n Channel(s) : 6 channels\n Channel positions : Front: L C R, Side: L R, LFE\n Sampling rate : 48.0 KHz\n Bit depth : 16 bits\n Stream size : 328 MiB (12%)\n Alignment : Split accross interleaves\n Interleave, duration : 42 ms (1.00 video frame)\n Interleave, preload duration : 500 ms","torrent":{"xt":"urn:btih:bb2937fb4b47070bc6af620a29eba44dacd49713","amp;dn":"Man.on.a.Ledge.2012.720p.BRrip.XviD.AC3-INFERNO","amp;tr":["udp%3A%2F%2Ftracker.openbittorrent.com%3A80","udp%3A%2F%2Fopen.demonii.com%3A1337","udp%3A%2F%2Ftracker.coppersurfer.tk%3A6969","udp%3A%2F%2Fexodus.desync.com%3A6969"],"infoHash":"bb2937fb4b47070bc6af620a29eba44dacd49713","infoHashBuffer":{"type":"Buffer","data":[187,41,55,251,75,71,7,11,198,175,98,10,41,235,164,77,172,212,151,19]},"announce":[],"urlList":[]}}